<?xml version="1.0" encoding="utf-8"?>
<!-- Generator: Adobe Illustrator 15.1.0, SVG Export Plug-In . SVG Version: 6.00 Build 0)  -->
<!DOCTYPE svg PUBLIC "-//W3C//DTD SVG 1.1//EN" "http://www.w3.org/Graphics/SVG/1.1/DTD/svg11.dtd">
<svg version="1.1" id="Layer_1" xmlns="http://www.w3.org/2000/svg" xmlns:xlink="http://www.w3.org/1999/xlink" x="0px" y="0px"
	 width="104px" height="151px" viewBox="0 0 104 151" enable-background="new 0 0 104 151" xml:space="preserve">
<g>
	<g>
		<path fill-rule="evenodd" clip-rule="evenodd" d="M52,14c-1.233,3.038-3.439-1.084-6,0c0.315,2.352,4.74,0.593,4,4
			c-9.316,0.35-14.916,4.417-21,8c3.445,5.889,6.524,12.142,9,19c-2.358,2.447-1.86-1.493-5-1c-0.838-2.821-2.817-4.662-4-7
			c-2.066-4.083-4.716-11.726-1-17c3.883-5.512,15.006-10.471,18-10C49.058,10.481,49.214,12.514,52,14z"/>
		<path fill-rule="evenodd" clip-rule="evenodd" d="M65,28c-0.431,2.236-4.929,0.405-7,1C57.778,23.953,63.196,26.739,65,28z"/>
		<path fill-rule="evenodd" clip-rule="evenodd" d="M46,30c-1.32,3.014-2.496,6.171-6,7C38.347,34.369,42.841,30.972,46,30z"/>
		<path fill-rule="evenodd" clip-rule="evenodd" d="M56,30c1.527,0.016,2.192,7.411-1,6C54.868,33.535,54.849,31.182,56,30z"/>
		<path fill-rule="evenodd" clip-rule="evenodd" d="M64,34c0,0.667,0,1.333,0,2C59.125,37.001,62.155,30.678,64,34z"/>
		<path fill-rule="evenodd" clip-rule="evenodd" d="M47,41c-2.318-0.279-2.298-2.671-1-4C48.318,37.279,48.298,39.671,47,41z"/>
		<path fill-rule="evenodd" clip-rule="evenodd" d="M66,37C63.804,40.055,59.595,35.846,66,37L66,37z"/>
		<path fill-rule="evenodd" clip-rule="evenodd" d="M52,40c-2.772,1.084-5.483,5.787-8,4C45.57,41.57,48.254,40.254,52,40z"/>
		<path fill-rule="evenodd" clip-rule="evenodd" d="M60,41c-1.011,1.656-4.247,1.086-6,2C54.804,40.879,58.116,39.101,60,41z"/>
		<path fill-rule="evenodd" clip-rule="evenodd" d="M36,48c-1.778-0.888-2.542-2.792-6-2C30.928,43.866,37.272,44.634,36,48z"/>
		<path fill-rule="evenodd" clip-rule="evenodd" d="M33,48c0.933,1.067,3.689,0.311,3,3C35.067,49.933,32.311,50.689,33,48z"/>
		<path fill-rule="evenodd" clip-rule="evenodd" d="M25,50c-1.599,1.734-4.501,2.166-8,2C17.928,49.578,23.262,48.556,25,50z"/>
		<path fill-rule="evenodd" clip-rule="evenodd" d="M24,54c2.083,2.475-4.655,4.635-8,5C16.867,55.534,22.477,56.811,24,54z"/>
		<path fill-rule="evenodd" clip-rule="evenodd" d="M30,57c-1.461,4.205-6.423,4.91-9,8C19.367,61.664,26.944,58.972,30,57z"/>
		<path fill-rule="evenodd" clip-rule="evenodd" d="M74,71c0.033,3.033-3.509,2.492-6,3C67.636,70.636,72.333,72.333,74,71z"/>
		<path fill-rule="evenodd" clip-rule="evenodd" d="M52,72c-4.141,2.341-13.972,0.427-5,0C48.663,71.921,50.336,72.06,52,72z"/>
		<path fill-rule="evenodd" clip-rule="evenodd" d="M27,85c-0.351,3.315-5.764,1.569-9,2C18.351,83.685,23.764,85.431,27,85z"/>
		<path fill-rule="evenodd" clip-rule="evenodd" d="M39,98c2.186,0.147,2.147,2.52,2,5c1.927-0.406,0.79-3.877,4-3
			c0.88,4.448,0.9,3.532,4,2c-0.263,4.07-1.881,6.785-3,10c-1.484-1.849-1.916-4.751-2-8c-1.667,1.334-1.553,4.447-3,6
			C38.49,108.097,38.028,100.211,39,98z"/>
		<path fill-rule="evenodd" clip-rule="evenodd" d="M50,103c2.487-0.154,3.096,1.571,5,2c-3.989,1.857-2.093,0.862-1,6
			c-0.028-0.132-1.974,0.132-2,0c0.432,2.156,4.472,3.671,2,5c-1.987-0.013-1.271-2.729-4-2C50,110.333,50,106.667,50,103z"/>
		<path fill-rule="evenodd" clip-rule="evenodd" d="M57,106c3.44,0.623,1.403,5.383,2,8c0.614,2.692,2.717,3.866,2,6
			C54.427,119.071,56.426,111.977,57,106z"/>
		<path fill-rule="evenodd" clip-rule="evenodd" d="M64,110c0.807,0.86,2.739,0.594,3,2c0.17,3.953-1.536-0.32-3,2
			c-1.488,5.155,2.385,4.949,3,8c-1.333,0-2.667,0-4,0C61.671,118.748,61.121,111.89,64,110z"/>
		<path fill-rule="evenodd" clip-rule="evenodd" d="M73,113c3.031,2.112,2.849,10.971-1,12C66.493,125.229,65.895,111.38,73,113z
			 M72,122c1.151-1.182,1.132-3.535,1-6c-1,0-2,0-3,0C70.016,118.651,69.445,121.889,72,122z"/>
		<path fill-rule="evenodd" clip-rule="evenodd" d="M77,115c2.267,1.066,3.634,3.033,4,6c2.82-0.18,1.247-4.753,5-4
			c0.281,3.386,1.591,5.742,1,10c-3.36,1.026-1.557-3.11-2-5c-1.759,0.241-2.279,1.721-2,4c-2.635,0.302-3.282-1.385-3-4
			c-2.652-0.318,0.936,5.602-3,4C77,122.333,77,118.667,77,115z"/>
		<path fill-rule="evenodd" clip-rule="evenodd" d="M88,117c2.409-0.409,2.174,1.826,5,1c1.255,1.867-1.938,1.67-2,2
			c-0.365,1.946,5.958,2.938,0,4c0.406,1.927,3.877,0.79,3,4c-2.826,0.826-2.591-1.409-5-1C89.782,122.551,87.668,120.998,88,117z"
			/>
		<path fill-rule="evenodd" clip-rule="evenodd" d="M49,126c-0.354,1.313-1.761,1.573-2,3C44.509,128.594,46.94,125.123,49,126z"/>
		<path fill-rule="evenodd" clip-rule="evenodd" d="M46,132c0.345-2.655,2.625-3.375,5-4C49.714,129.714,48.932,131.933,46,132z"/>
		<path fill-rule="evenodd" clip-rule="evenodd" d="M72,143c-0.473-3.14,2.691-2.642,3-5C77.189,138.983,74.102,143.007,72,143z"/>
		<path fill-rule="evenodd" clip-rule="evenodd" d="M41,122c2.516,0.329-1.454,2.279-2,4c-0.043,0.135,0.877,0.972,0,2
			c-0.573,0.672-2.331,1.454-3,2c-0.686,0.56-1.386,1.547-2,2c-3.494,2.578-9.017,3.463-11,8c-1.23-0.437-2.054-1.279-2-3
			c-3.796,1.204-4.68,5.32-11,4c-0.812-5.146,2.551-6.116,7-6c0-2,0-4,0-6c4.782-6.218,8.331-13.669,14-19
			c-0.068-2.933-2.286-3.714-4-5c1.529-3.181,0.351-4.399,0-8c1.747,0.92,2.207,3.126,2,6c2.28-1.387,0.373-6.961,1-10
			c3.802,6.067,4.576-0.918,0-3c-4.429-0.43-6.333,1.668-7,5c-0.909,4.909,4.191,3.809,4,8c-3.55-4.116-10.667-4.667-14-9
			c0-3,0-6,0-9c8.121-5.212,13.59-13.077,21-19c6.554,0.554,11.335-0.665,15-3c-2.36-3.64-8.364-3.636-9-9
			c-7.929,1.065-14.434-3.963-11-11c0.3,2.818,1.038,7.325,5,9c3.247,0.58,4.652-0.681,7-1c-0.516,4.731,4.987,6.945,9,9
			c0.438,0.225,1.683,1.912,2,2c13.391,3.714,21.132-5.559,18-20c-1.879-8.665-6.258-17.918-9-26c-5.145,0.811-7.859-0.807-10-3
			c1.127-3.24,5.834-3.494,9-2c4.17,4.336,7.057,16.684,10,25c1.462,4.13,4.906,10.652,3,18c-0.994,3.83-6.308,8.109-11,10
			c1.661,3.576,5.947,1.66,8,2c3.196,0.529,6.588,0.638,9,2c6.008,3.394,11.46,19.83,11,32c-3.666-0.334-4.037-3.963-9-3
			c3.213,2.453,9.199,2.134,8,9c2,0,4,0,6,0c0.005,13.801,10.245,24.146,5,37c-8.767,1.823-13.747-0.326-20,1
			c0.016-2.984,2.6-3.4,3-6c1.484,0.437-0.395,1.279,0,3c1.23-0.437,2.054-1.279,2-3c1.78,0.733,0.145,1.818,0,3
			c0.898,2.704,2.414-2.109,3-3c2.995,0.658-0.956,2.138,0,4c1.342-0.658,1.862-2.138,2-4c2.487,0.15,0.292,3.387,0,4
			c1.333,0,2.667,0,4,0c0.745-4.528-2.745,1.528-2-3c1.714-0.27,3.933-2.134,4,1c1.017-0.649,1.034-2.299,3-2
			c-0.529,0.805-1.043,1.623-1,3c5.393-7.201-1.847-16.27-4-26c-0.619-2.797,0.195-5.944-2-8c-7.323,0.034-10.405-1.288-17,0
			c0-1.333,0-2.667,0-4c-13.751-3.582-21.432-13.234-36-16c-1.02-1.313-0.98-3.687-2-5c-3.056,0.944-3.134,4.866-7,5
			c1.365-4.635,8.438-3.562,7-11c5.262-0.596,4.637,4.696,6,8c1.939,3.062,8.24,5.965,11,5c-1.528-6.472-9.274-6.726-10-14
			c4.594,3.072,7.406,7.928,12,11c2.267-1.066,3.634-3.033,4-6c-1.569-5.097-5.556-7.778-7-13c-4.573,2.838-8.687,1.257-15,1
			c-0.127,1.793,1.224,2.109,1,4c-2.054-0.279-1.996-2.671-3-4c-2.083,1.917-4.167,3.833-5,7c-0.174,2.841,6.542-1.208,5,3
			c-2.288-1.045-6.032-0.635-8-2c-3.655,3.346-5.335,8.665-12,9c-0.319,3.986-0.055,7.389,2,9c2.211-0.789,2.502-3.497,4-5
			c6.833,1.167,9.78-1.554,14-3c-2.541,11.778,0.668,20.396,1,33c0.473,3.14-2.691,2.642-3,5c0.677,2.188,3.323-1.895,4-3
			c2.719,0.914-2.664,1.859-1,5C38.177,124.511,39.51,123.177,41,122z M78,69c-5.963-0.37-11.419-1.248-16-3
			c-0.562,4.562,3.771,4.23,3,9c-2.121,6.879-8.288,9.713-10,17c3.299,1.169,4.194-2.511,6-4c4.215-3.476,7.845-5.711,11-9
			c1.517-1.581,2.353-4.68,5-5c-3.27,9.064-13.014,11.653-17,20c6.253-1.08,8.37-6.296,13-9c0.775-3.225,2.091-5.909,4-8
			c0.47,7.53,5.765,10.235,5,19c3.056-0.723,3.645,1.022,6,1C87.275,85.058,84.001,75.666,78,69z M58,71c3.205-3.15-3.629-8.573-6-6
			C55.142,65.858,54.222,70.778,58,71z M58,66c0.667,0,1.333,0,2,0c1.555-2.461-3.396-2.94-3-1C57.61,65.057,58.184,65.149,58,66z
			 M60,76c-0.409-2.409,1.826-2.174,1-5C56.945,70.417,57.824,75.113,60,76z M22,98c-2.584-2.98,2.546-6.677,1-8
			C21.723,91.812,17.651,96.569,22,98z M20,133c9.109,1.442,12.839-2.494,17-6c-2.967-0.366-4.933-1.733-6-4
			c1.298-1.329,1.318-3.721-1-4C27.355,124.355,22.063,127.062,20,133z M64,96c4.028,2.305,7.904,4.763,13,6
			c3.619-4.678,0.55-14.461-2-19C73.456,89.456,66.883,90.883,64,96z M76,105c2.101,2.116,3.899-1.177,6-2
			c-1.026,3.36,3.11,1.557,5,2c0.586-4.919-3.287-5.379-8-5C80.059,103.726,76.895,103.229,76,105z"/>
		<path fill-rule="evenodd" clip-rule="evenodd" d="M80,139c2.032-2.057-0.223,6.458-5,4c0.586-2.081,2.102-3.232,3-5
			C79.001,138.446,77.627,143.218,80,139z"/>
		<path fill-rule="evenodd" clip-rule="evenodd" d="M72,138c2.363,0.279-1.146,2.671-1,4c-11,0-22,0-33,0
			c-0.903-1.763-2.237-3.097-4-4c3.095-4.504,11.234,0.774,18-1c1.991-1.009,4.271-1.729,5-4c3.656,1.572-2.323,1.494-1,4
			c3.14,0.473,2.642-2.691,5-3c2.52,1.009-3.489,1.729-3,4c3.141,0.475,4.086-1.247,5-3c2.896,0.56-1.534,1.56-1,3
			c0.294,2.378,2.706-1.111,3-2c3.065,0.981-1.149,2.668-1,4c1.763-0.903,3.097-2.237,4-4c3.065,0.981-1.149,2.668-1,4
			C69.665,136.031,70.297,142.029,72,138z"/>
		<path fill-rule="evenodd" clip-rule="evenodd" d="M64,45c-1.046,3.104,0.229,6.366-3,9c-7.528,1.195-9.178-3.489-14-5
			c2.083-3.289,4.217,1.688,6,2c4.178,0.511,6.775-0.558,9-2c-1.836-2.413-5.896,1.372-10,0C56.274,47.941,60.429,46.762,64,45z"/>
		<path fill-rule="evenodd" clip-rule="evenodd" d="M45,47c1.408,3.952,5.733,16.581,17,12c2.709-1.102,4.734-3.644,4-8
			C71.937,67.001,41.602,61.987,45,47z"/>
		<path fill-rule="evenodd" clip-rule="evenodd" d="M46,124c3.451,2.245-4.051,1.854-2,6c-1.44-0.56-2.44-1.56-3-3
			c0.122-2.545,1.456-3.878,4-4c-0.56,1.44-1.56,2.44-3,3C42.905,128.71,45.681,125.158,46,124z"/>
		<path fill-rule="evenodd" clip-rule="evenodd" d="M52,135C54.042,130.125,58.719,133.269,52,135L52,135z"/>
		<path fill-rule="evenodd" clip-rule="evenodd" d="M54,130c2.033,1.039-3.646,6.13-6,3c0.677-2.323,3.323-2.677,4-5
			c2.71,0.905-0.842,3.681-2,4C50.097,133.902,53.903,131.38,54,130z"/>
	</g>
</g>
</svg>
